<svg width="221" height="248" viewBox="0 0 221 248" fill="none" xmlns="http://www.w3.org/2000/svg">
<path d="M178.224 145.672L184.844 222.352C185.373 228.594 181.562 234.07 176.332 234.514L30.8207 246.998C25.6192 247.452 20.9189 242.705 20.4176 236.472L13.7975 159.782C13.6661 158.343 13.778 156.891 14.1285 155.489C15.1688 151.204 18.3275 147.923 22.2807 147.629L167.792 135.136C171.736 134.796 175.358 137.453 177.164 141.482C177.746 142.811 178.104 144.226 178.224 145.672Z" fill="#B76080"/>
<path opacity="0.1" d="M178.224 145.672L184.844 222.352C185.373 228.594 181.562 234.07 176.332 234.514L30.8207 246.998C25.6192 247.452 20.9189 242.705 20.4176 236.472L13.7975 159.782C13.6661 158.343 13.778 156.891 14.1285 155.489C15.1688 151.204 18.3275 147.923 22.2807 147.629L167.792 135.136C171.736 134.796 175.358 137.453 177.164 141.482C177.746 142.811 178.104 144.226 178.224 145.672Z" fill="black"/>
<path d="M184.741 131.958L194.255 210.606C195.021 216.999 191.295 222.768 185.961 223.411L36.7329 241.465C31.3989 242.109 26.396 237.399 25.6205 230.996L16.1063 152.358C15.9253 150.879 15.9892 149.38 16.2955 147.922C17.2412 143.487 20.3432 140.035 24.4004 139.543L173.629 121.498C177.686 121.007 181.544 123.607 183.502 127.693C184.147 129.037 184.566 130.478 184.741 131.958Z" fill="#B76080"/>
<path opacity="0.1" d="M183.502 127.693L115.816 173.268C112.503 175.532 108.694 176.966 104.711 177.449C100.727 177.931 96.6864 177.448 92.9291 176.039L16.3242 147.922C17.27 143.487 20.372 140.035 24.4292 139.543L173.657 121.498C177.686 121.007 181.545 123.607 183.502 127.693Z" fill="black"/>
<path d="M158.251 144.688L138.806 157.777L132.442 162.071L115.815 173.269C112.589 175.483 108.885 176.906 105.006 177.421C101.126 177.937 97.1801 177.532 93.4866 176.238L92.8908 176.04L83.5658 172.616L62.5704 164.908L52.7536 161.305L41.6317 157.219L40.8278 137.558L39.0215 93.8644L124.45 90.3936L157.012 115.068L157.352 123.457L158.251 144.688Z" fill="#B76080"/>
<path opacity="0.7" d="M158.251 144.688L138.806 157.777L132.442 162.071L115.815 173.269C112.589 175.483 108.885 176.906 105.006 177.421C101.126 177.937 97.1801 177.532 93.4866 176.238L92.8908 176.04L83.5658 172.616L62.5704 164.908L52.7536 161.305L41.6317 157.219L40.8278 137.558L39.0215 93.8644L124.45 90.3936L157.012 115.068L157.352 123.457L158.251 144.688Z" fill="#FAFAFA"/>
<g opacity="0.9">
<path d="M146.21 123.76L51.6359 127.599C51.1084 127.62 50.5936 127.434 50.2014 127.081C49.8092 126.727 49.5705 126.235 49.5364 125.708C49.5181 125.182 49.7053 124.669 50.0584 124.279C50.4115 123.889 50.9027 123.652 51.4279 123.618L146.002 119.778C146.529 119.757 147.044 119.943 147.436 120.297C147.829 120.65 148.067 121.143 148.101 121.669C148.122 122.196 147.936 122.71 147.582 123.1C147.228 123.491 146.736 123.728 146.21 123.76Z" fill="white"/>
<path d="M146.714 136.328L52.1398 140.168C51.6123 140.189 51.0975 140.003 50.7053 139.649C50.3131 139.296 50.0744 138.803 50.0403 138.276C50.0219 137.75 50.2088 137.236 50.5617 136.844C50.9146 136.453 51.4058 136.213 51.9318 136.177L146.506 132.337C147.033 132.319 147.546 132.506 147.938 132.859C148.329 133.211 148.569 133.703 148.605 134.229C148.621 134.755 148.433 135.267 148.081 135.658C147.729 136.049 147.239 136.289 146.714 136.328Z" fill="white"/>
<path d="M147.224 148.888L52.6499 152.728C52.1224 152.748 51.6076 152.562 51.2154 152.209C50.8232 151.856 50.5845 151.363 50.5504 150.836C50.5296 150.31 50.716 149.796 51.0696 149.405C51.4232 149.014 51.9159 148.778 52.4419 148.746L147.016 144.906C147.542 144.886 148.056 145.072 148.447 145.426C148.837 145.779 149.074 146.272 149.106 146.798C149.127 147.323 148.942 147.835 148.59 148.226C148.238 148.616 147.748 148.854 147.224 148.888Z" fill="white"/>
<path d="M138.807 157.777L132.442 162.071L62.5707 164.908L52.7539 161.305C52.8356 161.295 52.9181 161.295 52.9998 161.305L138.807 157.777Z" fill="white"/>
<path d="M112.921 173.429V173.505C112.923 174.019 112.728 174.515 112.376 174.891C112.025 175.267 111.543 175.495 111.03 175.529L93.5243 176.238L92.9285 176.039L83.6035 172.616L110.869 171.5C111.395 171.492 111.903 171.689 112.286 172.049C112.669 172.409 112.897 172.904 112.921 173.429Z" fill="white"/>
</g>
<path opacity="0.1" d="M157.048 115.068L134.426 114.094L124.486 90.3936L157.048 115.068Z" fill="#263238"/>
<path d="M157.048 115.068L135.098 111.313L124.486 90.3936L157.048 115.068Z" fill="#B76080"/>
<path d="M200.563 23.3503C200.563 42.5866 179.482 61.4919 176.323 61.4919C173.165 61.4919 152.084 42.5772 152.084 23.3503C152.084 10.4599 162.932 0 176.323 0C189.715 0 200.563 10.4599 200.563 23.3503Z" fill="#B76080"/>
<path opacity="0.1" d="M171.821 18.5551C167.433 23.3689 161.475 25.0902 158.515 22.3381C155.554 19.586 156.708 13.5522 161.087 8.73837C165.466 3.92456 171.433 2.20331 174.403 4.89866C177.373 7.59402 176.209 13.7413 171.821 18.5551Z" fill="white"/>
<path opacity="0.1" d="M158.891 37.934C158.314 36.4965 158.466 35.0968 159.232 34.7752C159.998 34.4537 161.123 35.3805 161.662 36.818C162.201 38.2555 162.088 39.6552 161.322 39.9673C160.556 40.2794 159.468 39.362 158.891 37.934Z" fill="white"/>
<path d="M175.284 122.019C175.182 122.017 175.084 121.975 175.012 121.903C174.94 121.831 174.898 121.734 174.896 121.631C174.868 120.356 175.253 119.105 175.993 118.066C176.628 117.135 176.967 116.034 176.967 114.907C176.967 113.78 176.628 112.68 175.993 111.749C175.279 110.697 174.897 109.455 174.897 108.183C174.897 106.912 175.279 105.669 175.993 104.618C176.628 103.688 176.968 102.589 176.968 101.464C176.968 100.338 176.628 99.2388 175.993 98.3096C175.278 97.2597 174.896 96.019 174.896 94.7489C174.896 93.4787 175.278 92.238 175.993 91.1881C176.628 90.2589 176.968 89.1596 176.968 88.0341C176.968 86.9086 176.628 85.8093 175.993 84.8801C175.278 83.8302 174.896 82.5895 174.896 81.3194C174.896 80.0493 175.278 78.8085 175.993 77.7587C176.628 76.8295 176.968 75.7301 176.968 74.6046C176.968 73.4791 176.628 72.3798 175.993 71.4506C175.278 70.4007 174.896 69.16 174.896 67.8899C174.896 66.6198 175.278 65.379 175.993 64.3292C176.64 63.4093 176.972 62.3043 176.939 61.1798C176.953 61.0862 177.001 61.0009 177.073 60.9393C177.145 60.8776 177.236 60.8437 177.331 60.8438C177.426 60.8437 177.518 60.8776 177.59 60.9393C177.662 61.0009 177.709 61.0862 177.724 61.1798C177.75 62.4524 177.366 63.6995 176.627 64.7358C175.981 65.6601 175.649 66.7675 175.681 67.8946C175.647 69.019 175.979 70.124 176.627 71.0439C177.341 72.0938 177.724 73.3345 177.724 74.6046C177.724 75.8747 177.341 77.1154 176.627 78.1653C175.987 79.0925 175.644 80.1926 175.644 81.3194C175.644 82.4461 175.987 83.5462 176.627 84.4734C177.341 85.5233 177.724 86.764 177.724 88.0341C177.724 89.3042 177.341 90.5449 176.627 91.5948C175.987 92.522 175.644 93.6221 175.644 94.7489C175.644 95.8756 175.987 96.9757 176.627 97.9029C177.341 98.9528 177.724 100.193 177.724 101.464C177.724 102.734 177.341 103.974 176.627 105.024C175.986 105.953 175.642 107.055 175.642 108.183C175.642 109.311 175.986 110.413 176.627 111.342C177.341 112.394 177.723 113.636 177.723 114.907C177.723 116.179 177.341 117.421 176.627 118.473C175.978 119.396 175.646 120.504 175.681 121.631C175.681 121.683 175.671 121.734 175.651 121.782C175.63 121.83 175.601 121.873 175.564 121.909C175.527 121.945 175.483 121.974 175.435 121.992C175.387 122.011 175.335 122.02 175.284 122.019Z" fill="#263238"/>
<path d="M176.323 60.584C175.576 60.584 170.648 65.029 170.648 69.5496H182.016C182.016 65.029 177.098 60.584 176.323 60.584Z" fill="#B76080"/>
<path d="M177.44 60.7354H175.208C175.025 60.7354 174.877 60.8835 174.877 61.0664V61.3028C174.877 61.4856 175.025 61.6338 175.208 61.6338H177.44C177.623 61.6338 177.771 61.4856 177.771 61.3028V61.0664C177.771 60.8835 177.623 60.7354 177.44 60.7354Z" fill="#263238"/>
<path d="M48.4786 41.329C48.4786 60.5559 27.398 79.4612 24.2393 79.4612C21.0805 79.4612 0 60.5464 0 41.329C0 28.4291 10.8476 17.9692 24.2393 17.9692C37.6309 17.9692 48.4786 28.4291 48.4786 41.329Z" fill="#263238"/>
<path opacity="0.1" d="M20.3094 37.3121C24.6955 32.497 25.8501 26.4065 22.8885 23.7088C19.9268 21.011 13.9703 22.7275 9.58422 27.5427C5.19817 32.3578 4.04349 38.4482 7.00517 41.1459C9.96684 43.8437 15.9234 42.1272 20.3094 37.3121Z" fill="white"/>
<path opacity="0.1" d="M7.37556 56.6874C6.79866 55.2499 6.94998 53.8502 7.71603 53.5286C8.48208 53.2071 9.60751 54.1339 10.1466 55.5714C10.6857 57.009 10.5722 58.4086 9.80612 58.7302C9.04007 59.0517 7.95246 58.1249 7.37556 56.6874Z" fill="white"/>
<path d="M23.1607 139.988C23.0578 139.988 22.9592 139.947 22.8865 139.874C22.8138 139.802 22.7729 139.703 22.7729 139.6C22.7448 138.324 23.1296 137.074 23.87 136.035C24.5047 135.104 24.8441 134.003 24.8441 132.876C24.8441 131.749 24.5047 130.648 23.87 129.717C23.1556 128.665 22.7737 127.423 22.7737 126.152C22.7737 124.88 23.1556 123.638 23.87 122.586C24.5175 121.666 24.8493 120.561 24.8157 119.437C24.8473 118.31 24.5157 117.202 23.87 116.278C23.1552 115.228 22.7729 113.988 22.7729 112.717C22.7729 111.447 23.1552 110.207 23.87 109.157C24.5175 108.237 24.8493 107.132 24.8157 106.007C24.8473 104.88 24.5157 103.773 23.87 102.849C23.1552 101.799 22.7729 100.558 22.7729 99.288C22.7729 98.0179 23.1552 96.7772 23.87 95.7273C24.5043 94.7995 24.8437 93.7019 24.8437 92.578C24.8437 91.4541 24.5043 90.3564 23.87 89.4287C23.1552 88.3788 22.7729 87.1381 22.7729 85.868C22.7729 84.5979 23.1552 83.3571 23.87 82.3073C24.5157 81.383 24.8473 80.2756 24.8157 79.1485C24.8181 79.0464 24.8597 78.9492 24.9319 78.877C25.0041 78.8048 25.1014 78.7631 25.2035 78.7607C25.3063 78.7607 25.4049 78.8016 25.4776 78.8743C25.5504 78.947 25.5912 79.0456 25.5912 79.1485C25.6207 80.4229 25.2394 81.673 24.5036 82.7139C23.863 83.6392 23.5198 84.7378 23.5198 85.8632C23.5198 86.9886 23.863 88.0873 24.5036 89.0125C25.2123 90.0648 25.5909 91.3046 25.5909 92.5733C25.5909 93.8419 25.2123 95.0817 24.5036 96.134C23.8579 97.0583 23.5263 98.1656 23.5579 99.2927C23.5243 100.417 23.8561 101.522 24.5036 102.442C25.2123 103.494 25.5909 104.734 25.5909 106.003C25.5909 107.271 25.2123 108.511 24.5036 109.563C23.8579 110.488 23.5263 111.595 23.5579 112.722C23.5243 113.847 23.8561 114.952 24.5036 115.872C25.2123 116.924 25.5909 118.164 25.5909 119.432C25.5909 120.701 25.2123 121.941 24.5036 122.993C23.8627 123.922 23.5194 125.023 23.5194 126.152C23.5194 127.28 23.8627 128.382 24.5036 129.31C25.2131 130.364 25.5921 131.606 25.5921 132.876C25.5921 134.146 25.2131 135.388 24.5036 136.441C23.8566 137.365 23.5249 138.473 23.5579 139.6C23.5579 139.652 23.5476 139.703 23.5275 139.751C23.5074 139.798 23.478 139.842 23.441 139.878C23.404 139.914 23.3601 139.942 23.312 139.961C23.2638 139.98 23.2124 139.989 23.1607 139.988Z" fill="#B76080"/>
<path d="M24.2018 78.562C23.4546 78.562 18.5273 82.9975 18.5273 87.5182H29.8762C29.8951 82.9975 24.9395 78.562 24.2018 78.562Z" fill="#263238"/>
<path d="M25.3169 78.7041H23.0849C22.9021 78.7041 22.7539 78.8523 22.7539 79.0351V79.2715C22.7539 79.4543 22.9021 79.6026 23.0849 79.6026H25.3169C25.4997 79.6026 25.6479 79.4543 25.6479 79.2715V79.0351C25.6479 78.8523 25.4997 78.7041 25.3169 78.7041Z" fill="#B76080"/>
<path d="M204.251 147.473C213.502 138.979 214.115 124.594 205.62 115.343C197.126 106.092 182.741 105.479 173.49 113.974C164.239 122.468 163.626 136.854 172.121 146.104C180.615 155.355 195.001 155.968 204.251 147.473Z" fill="#3AC6B4"/>
<path d="M199.295 124.085L186.549 136.831L180.756 131.037" stroke="#FDFDFD" stroke-width="3.37073" stroke-linecap="round" stroke-linejoin="round"/>
</svg>
